<?xml version="1.0" encoding="utf-8"?>
<!-- Generator: Adobe Illustrator 17.1.0, SVG Export Plug-In . SVG Version: 6.00 Build 0)  -->
<!DOCTYPE svg PUBLIC "-//W3C//DTD SVG 1.1//EN" "http://www.w3.org/Graphics/SVG/1.1/DTD/svg11.dtd">
<svg version="1.1" id="Isolation_Mode" xmlns="http://www.w3.org/2000/svg" xmlns:xlink="http://www.w3.org/1999/xlink" x="0px"
	 y="0px" viewBox="0 212.4 612 367.2" enable-background="new 0 212.4 612 367.2" xml:space="preserve">
<g>
	<g>
		<defs>
			<rect id="SVGID_1_" y="212.4" width="612" height="367.2"/>
		</defs>
		<clipPath id="SVGID_2_">
			<use xlink:href="#SVGID_1_"  overflow="visible"/>
		</clipPath>
		<g clip-path="url(#SVGID_2_)">
			<rect y="212.4" fill="#3B3D3C" width="612" height="367.2"/>
			<g opacity="0.5">
				<rect x="462.3" y="379.7" fill="none" width="49" height="29.4"/>
				<text transform="matrix(1 0 0 1 472.1914 383.8655)" fill="#FFFFFF" font-family="'Austin-Semibold'" font-size="6.12">Tompkins</text>
			</g>
			<line fill="none" stroke="#231F20" stroke-miterlimit="10" x1="325.1" y1="174.1" x2="73.6" y2="635.7"/>
			<line fill="none" stroke="#231F20" stroke-miterlimit="10" x1="442.3" y1="170.7" x2="210.8" y2="595.4"/>
			<line fill="none" stroke="#231F20" stroke-miterlimit="10" x1="553.6" y1="163.7" x2="316.7" y2="599.9"/>
			<line fill="none" stroke="#231F20" stroke-miterlimit="10" x1="661" y1="163.7" x2="426.9" y2="593.6"/>
			<line fill="none" stroke="#231F20" stroke-miterlimit="10" x1="768.7" y1="163.7" x2="539.2" y2="585.7"/>
			<line fill="none" stroke="#231F20" stroke-miterlimit="10" x1="103.2" y1="174.1" x2="-148.4" y2="635.7"/>
			<polyline fill="none" stroke="#231F20" stroke-miterlimit="10" points="220.3,170.7 133.4,330.1 63.9,602.5 			"/>
			<polyline fill="none" stroke="#231F20" stroke-miterlimit="10" points="168.7,148.2 133.4,330.1 63.9,602.5 			"/>
			<line fill="none" stroke="#231F20" stroke-miterlimit="10" x1="-55.6" y1="186.1" x2="715.2" y2="604.5"/>
			<line fill="none" stroke="#231F20" stroke-miterlimit="10" x1="-77.2" y1="214.2" x2="693.6" y2="632.6"/>
			<line fill="none" stroke="#231F20" stroke-miterlimit="10" x1="-95.2" y1="242.8" x2="675.6" y2="661.2"/>
			<line fill="none" stroke="#231F20" stroke-miterlimit="10" x1="-114.7" y1="272.6" x2="656.1" y2="691"/>
			<line fill="none" stroke="#231F20" stroke-miterlimit="10" x1="-40.5" y1="156.3" x2="730.3" y2="574.7"/>
			<line fill="none" stroke="#231F20" stroke-miterlimit="10" x1="-29.5" y1="124.5" x2="437.8" y2="376.6"/>
			<line fill="none" stroke="#231F20" stroke-miterlimit="10" x1="-11.1" y1="95.5" x2="453.5" y2="347.7"/>
			<line fill="none" stroke="#231F20" stroke-miterlimit="10" x1="521.1" y1="420.6" x2="987" y2="672"/>
			<line fill="none" stroke="#231F20" stroke-miterlimit="10" x1="537.5" y1="390.5" x2="1002.7" y2="643.1"/>
			<g>
				<line fill="none" stroke="#231F20" stroke-miterlimit="10" x1="-178.8" y1="352.1" x2="592" y2="770.5"/>
				<line fill="none" stroke="#231F20" stroke-miterlimit="10" x1="-200.4" y1="380.3" x2="570.4" y2="798.7"/>
				<line fill="none" stroke="#231F20" stroke-miterlimit="10" x1="-218.4" y1="408.8" x2="552.4" y2="827.3"/>
				<line fill="none" stroke="#231F20" stroke-miterlimit="10" x1="-238" y1="438.6" x2="532.8" y2="857"/>
				<line fill="none" stroke="#231F20" stroke-miterlimit="10" x1="-163.7" y1="322.3" x2="607.1" y2="740.8"/>
				<line fill="none" stroke="#231F20" stroke-miterlimit="10" x1="-152.7" y1="290.5" x2="618.1" y2="708.9"/>
				<line fill="none" stroke="#231F20" stroke-miterlimit="10" x1="-134.3" y1="261.6" x2="636.5" y2="680"/>
			</g>
			<line fill="none" stroke="#231F20" stroke-miterlimit="10" x1="76.2" y1="24.1" x2="847" y2="442.5"/>
			<line fill="none" stroke="#231F20" stroke-miterlimit="10" x1="54.6" y1="52.3" x2="825.4" y2="470.7"/>
			<line fill="none" stroke="#231F20" stroke-miterlimit="10" x1="36.6" y1="80.8" x2="807.4" y2="499.2"/>
			<line fill="none" stroke="#231F20" stroke-miterlimit="10" x1="91.3" y1="-5.7" x2="862.1" y2="412.7"/>
			<line fill="none" stroke="#231F20" stroke-miterlimit="10" x1="102.3" y1="-37.5" x2="873.1" y2="380.9"/>
			<line fill="none" stroke="#231F20" stroke-miterlimit="10" x1="120.7" y1="-66.5" x2="891.5" y2="351.9"/>
			<g opacity="0.5">
				
					<rect x="340.7" y="372.8" transform="matrix(-0.4534 0.8913 -0.8913 -0.4534 852.2317 251.0527)" fill="none" width="16.8" height="28.2"/>
				
					<text transform="matrix(0.4534 -0.8913 0.8913 0.4534 339.0605 384.7916)" fill="#FFFFFF" font-family="'Austin-Semibold'" font-size="6.12">1</text>
				
					<text transform="matrix(0.4534 -0.8913 0.8913 0.4534 338.4839 381.43)" fill="#FFFFFF" font-family="'Austin-Semibold'" font-size="3.5677">st</text>
			</g>
			<g opacity="0.5">
				
					<rect x="307.2" y="281.6" transform="matrix(-0.8815 -0.4721 0.4721 -0.8815 454.1665 705.3377)" fill="none" width="16.8" height="28.2"/>
				
					<text transform="matrix(0.8815 0.4721 -0.4721 0.8815 317.045 285.2588)" fill="#FFFFFF" font-family="'Austin-Semibold'" font-size="6.1198">9</text>
				
					<text transform="matrix(0.8816 0.4721 -0.4721 0.8816 321.4545 285.3088)" fill="#FFFFFF" font-family="'Austin-Semibold'" font-size="3.5676">th</text>
			</g>
			<g opacity="0.5">
				
					<rect x="324.7" y="250.3" transform="matrix(-0.8815 -0.4721 0.4721 -0.8815 501.9557 654.7632)" fill="none" width="16.8" height="28.2"/>
				
					<text transform="matrix(0.8815 0.4721 -0.4721 0.8815 332.4303 252.8147)" fill="#FFFFFF" font-family="'Austin-Semibold'" font-size="6.1198">10</text>
				
					<text transform="matrix(0.8816 0.4721 -0.4721 0.8816 339.6125 254.3497)" fill="#FFFFFF" font-family="'Austin-Semibold'" font-size="3.5676">th</text>
			</g>
			<g opacity="0.5">
				
					<rect x="341" y="221.2" transform="matrix(-0.8815 -0.4721 0.4721 -0.8815 546.3987 607.7158)" fill="none" width="16.8" height="28.2"/>
				
					<text transform="matrix(0.8815 0.4721 -0.4721 0.8815 350.4911 224.6473)" fill="#FFFFFF" font-family="'Austin-Semibold'" font-size="6.1198">11</text>
				
					<text transform="matrix(0.8816 0.4721 -0.4721 0.8816 356.276 225.4339)" fill="#FFFFFF" font-family="'Austin-Semibold'" font-size="3.5676">th</text>
			</g>
			<g opacity="0.5">
				
					<rect x="358.2" y="190.6" transform="matrix(-0.8815 -0.4721 0.4721 -0.8815 593.0849 558.2318)" fill="none" width="16.8" height="28.2"/>
				
					<text transform="matrix(0.8815 0.4721 -0.4721 0.8815 367.015 193.7192)" fill="#FFFFFF" font-family="'Austin-Semibold'" font-size="6.1198">12</text>
				
					<text transform="matrix(0.8816 0.4721 -0.4721 0.8816 374.0244 195.1615)" fill="#FFFFFF" font-family="'Austin-Semibold'" font-size="3.5676">st</text>
			</g>
			<g opacity="0.5">
				
					<rect x="241.1" y="401.6" transform="matrix(-0.8815 -0.4721 0.4721 -0.8815 273.1832 899.8237)" fill="none" width="16.8" height="28.2"/>
				
					<text transform="matrix(0.8815 0.4721 -0.4721 0.8815 251.1299 405.3077)" fill="#FFFFFF" font-family="'Austin-Semibold'" font-size="6.1198">5</text>
				
					<text transform="matrix(0.8816 0.4721 -0.4721 0.8816 255.178 405.164)" fill="#FFFFFF" font-family="'Austin-Semibold'" font-size="3.5676">th</text>
			</g>
			<g opacity="0.5">
				
					<rect x="225.2" y="431.1" transform="matrix(-0.8815 -0.4721 0.4721 -0.8815 229.3277 947.8345)" fill="none" width="16.8" height="28.2"/>
				
					<text transform="matrix(0.8815 0.4721 -0.4721 0.8815 235.0368 434.7148)" fill="#FFFFFF" font-family="'Austin-Semibold'" font-size="6.1198">4</text>
				
					<text transform="matrix(0.8816 0.4721 -0.4721 0.8816 239.4612 434.7732)" fill="#FFFFFF" font-family="'Austin-Semibold'" font-size="3.5676">th</text>
			</g>
			<g opacity="0.5">
				
					<rect x="208.4" y="462.4" transform="matrix(-0.8815 -0.4721 0.4721 -0.8815 183.0864 998.7977)" fill="none" width="16.8" height="28.2"/>
				
					<text transform="matrix(0.8815 0.4721 -0.4721 0.8815 218.3078 465.9983)" fill="#FFFFFF" font-family="'Austin-Semibold'" font-size="6.1198">3</text>
				
					<text transform="matrix(0.8816 0.4721 -0.4721 0.8816 222.5985 465.9848)" fill="#FFFFFF" font-family="'Austin-Semibold'" font-size="3.5676">rd</text>
			</g>
			<g opacity="0.5">
				
					<rect x="192.1" y="493.4" transform="matrix(-0.8815 -0.4721 0.4721 -0.8815 137.7306 1049.4315)" fill="none" width="16.8" height="28.2"/>
				
					<text transform="matrix(0.8815 0.4721 -0.4721 0.8815 201.5743 496.7886)" fill="#FFFFFF" font-family="'Austin-Semibold'" font-size="6.1198">2</text>
				
					<text transform="matrix(0.8816 0.4721 -0.4721 0.8816 206.1716 496.9394)" fill="#FFFFFF" font-family="'Austin-Semibold'" font-size="3.5676">nd</text>
			</g>
			<g opacity="0.5">
				
					<rect x="177" y="521.5" transform="matrix(-0.8815 -0.4721 0.4721 -0.8815 96.0505 1095.2756)" fill="none" width="16.8" height="28.2"/>
				
					<text transform="matrix(0.8815 0.4721 -0.4721 0.8815 187.6811 525.581)" fill="#FFFFFF" font-family="'Austin-Semibold'" font-size="6.1198">1</text>
				
					<text transform="matrix(0.8816 0.4721 -0.4721 0.8816 191.0546 525.0763)" fill="#FFFFFF" font-family="'Austin-Semibold'" font-size="3.5676">st</text>
			</g>
			<g opacity="0.5">
				
					<rect x="257.4" y="370.3" transform="matrix(-0.8815 -0.4721 0.4721 -0.8815 318.6694 848.6711)" fill="none" width="16.8" height="28.2"/>
				
					<text transform="matrix(0.8815 0.4721 -0.4721 0.8815 267.2705 373.924)" fill="#FFFFFF" font-family="'Austin-Semibold'" font-size="6.1198">6</text>
				
					<text transform="matrix(0.8816 0.4721 -0.4721 0.8816 271.6915 373.9802)" fill="#FFFFFF" font-family="'Austin-Semibold'" font-size="3.5676">th</text>
			</g>
			<g opacity="0.5">
				
					<rect x="425.3" y="417.5" transform="matrix(-0.4534 0.8913 -0.8913 -0.4534 1015.0283 240.6842)" fill="none" width="16.8" height="28.2"/>
				
					<text transform="matrix(0.4534 -0.8913 0.8913 0.4534 424.053 428.702)" fill="#FFFFFF" font-family="'Austin-Semibold'" font-size="6.12">A</text>
			</g>
			<g opacity="0.5">
				
					<rect x="507.3" y="461.6" transform="matrix(-0.4534 0.8913 -0.8913 -0.4534 1173.5906 231.6248)" fill="none" width="16.8" height="28.2"/>
				
					<text transform="matrix(0.4534 -0.8913 0.8913 0.4534 506.0872 472.8309)" fill="#FFFFFF" font-family="'Austin-Semibold'" font-size="6.12">B</text>
			</g>
			<g opacity="0.5">
				
					<rect x="591" y="506.3" transform="matrix(-0.4534 0.8913 -0.8913 -0.4534 1335.0663 222.0669)" fill="none" width="16.8" height="28.2"/>
				
					<text transform="matrix(0.4534 -0.8913 0.8913 0.4534 589.7534 517.5597)" fill="#FFFFFF" font-family="'Austin-Semibold'" font-size="6.12">C</text>
			</g>
			<g opacity="0.5">
				
					<rect x="251.1" y="323" transform="matrix(-0.4534 0.8913 -0.8913 -0.4534 677.5475 258.6002)" fill="none" width="16.8" height="28.2"/>
				
					<text transform="matrix(0.4534 -0.8913 0.8913 0.4534 248.7919 336.2165)" fill="#FFFFFF" font-family="'Austin-Semibold'" font-size="6.12">2</text>
				
					<text transform="matrix(0.4534 -0.8913 0.8913 0.4534 248.8443 331.6156)" fill="#FFFFFF" font-family="'Austin-Semibold'" font-size="3.5677">nd</text>
			</g>
			<g opacity="0.5">
				
					<rect x="170" y="279.1" transform="matrix(-0.4534 0.8913 -0.8913 -0.4534 520.5884 267.0942)" fill="none" width="16.8" height="28.2"/>
				
					<text transform="matrix(0.4534 -0.8913 0.8913 0.4534 168.3248 291.1305)" fill="#FFFFFF" font-family="'Austin-Semibold'" font-size="6.12">3</text>
				
					<text transform="matrix(0.4534 -0.8913 0.8913 0.4534 168.1573 287.1759)" fill="#FFFFFF" font-family="'Austin-Semibold'" font-size="3.5677">rd</text>
			</g>
		</g>
	</g>
	<g>
		<defs>
			<rect id="SVGID_3_" y="212.4" width="612" height="367.2"/>
		</defs>
		<clipPath id="SVGID_4_">
			<use xlink:href="#SVGID_3_"  overflow="visible"/>
		</clipPath>
		<line clip-path="url(#SVGID_4_)" fill="none" stroke="#FFFFFF" stroke-miterlimit="10" x1="305" y1="355.6" x2="305" y2="385.8"/>
	</g>
	<g>
		<defs>
			<rect id="SVGID_5_" y="212.4" width="612" height="367.2"/>
		</defs>
		<clipPath id="SVGID_6_">
			<use xlink:href="#SVGID_5_"  overflow="visible"/>
		</clipPath>
		<circle clip-path="url(#SVGID_6_)" fill="none" stroke="#FFFFFF" stroke-miterlimit="10" cx="305" cy="389.7" r="3.8"/>
	</g>
</g>
</svg>
